<svg width="44" height="44" viewBox="0 0 44 44" fill="none" xmlns="http://www.w3.org/2000/svg">
<rect x="7.50507" y="29.535" width="34.3236" height="5" rx="2.5" transform="rotate(-35.6253 7.50507 29.535)" fill="black"/>
<path fill-rule="evenodd" clip-rule="evenodd" d="M31.2173 14.0237L38.8806 20.147C39.3761 20.5437 39.6646 21.144 39.6646 21.7787C39.6646 22.4134 39.3761 23.0137 38.8806 23.4104L31.2173 29.5337C26.1665 33.5653 18.9981 33.5653 13.9473 29.5337L6.28395 23.4104C5.78843 23.0137 5.5 22.4134 5.5 21.7787C5.5 21.144 5.78843 20.5437 6.28395 20.147L13.9473 14.0237C18.9981 9.9921 26.1665 9.9921 31.2173 14.0237ZM18.3656 21.7787C18.3656 24.1075 20.2535 25.9954 22.5823 25.9954C24.9111 25.9954 26.7989 24.1075 26.7989 21.7787C26.7989 19.4499 24.9111 17.562 22.5823 17.562C20.2535 17.562 18.3656 19.4499 18.3656 21.7787Z" fill="black"/>
</svg>
