<svg width="34" height="34" viewBox="0 0 34 34" fill="none" xmlns="http://www.w3.org/2000/svg">
<path fill-rule="evenodd" clip-rule="evenodd" d="M8.5 5.66666H25.5C28.6296 5.66666 31.1667 8.20371 31.1667 11.3333V24.0833C31.1667 27.2129 28.6296 29.75 25.5 29.75H8.5C5.37039 29.75 2.83334 27.2129 2.83334 24.0833V11.3333C2.83334 8.20371 5.37039 5.66666 8.5 5.66666ZM18.9833 19.1958L27.965 12.5375C28.3658 12.2428 28.4543 11.6802 28.1633 11.2767C28.0246 11.084 27.8138 10.9557 27.5789 10.921C27.3441 10.8863 27.1052 10.9482 26.9167 11.0925L17.8358 17.7083C17.6086 17.9465 17.2938 18.0813 16.9646 18.0813C16.6354 18.0813 16.3206 17.9465 16.0933 17.7083L7.08333 11.0925C6.89574 10.9527 6.66014 10.8936 6.42877 10.9281C6.1974 10.9627 5.98938 11.0882 5.85084 11.2767C5.55677 11.6765 5.63885 12.2385 6.035 12.5375L14.96 19.125C15.5154 19.6518 16.2487 19.9502 17.0142 19.9608C17.7431 19.9607 18.4455 19.6878 18.9833 19.1958Z" fill="black"/>
</svg>
