<svg width="34" height="34" viewBox="0 0 34 34" fill="none" xmlns="http://www.w3.org/2000/svg">
<path fill-rule="evenodd" clip-rule="evenodd" d="M23.4479 10.0895V5.66952C23.4487 4.51482 22.9796 3.40951 22.1486 2.60785C21.3175 1.80618 20.196 1.37718 19.0421 1.41952H14.3954C13.2415 1.37718 12.12 1.80618 11.289 2.60785C10.4579 3.40951 9.98882 4.51482 9.9896 5.66952V10.0895C7.05878 11.1274 5.27615 14.0984 5.7396 17.1729L7.08543 25.347C7.73236 28.6333 10.6503 30.9772 13.9988 30.9004H19.4954C22.8439 30.9772 25.7618 28.6333 26.4088 25.347L27.7546 17.1729C28.2111 14.0829 26.4013 11.1062 23.4479 10.0895ZM18.1354 21.1537L18.4329 22.032C18.5634 22.434 18.4952 22.8741 18.2493 23.2178C18.0034 23.5616 17.6089 23.7682 17.1863 23.7745H16.1379C15.7153 23.7682 15.3208 23.5616 15.0749 23.2178C14.829 22.8741 14.7608 22.434 14.8913 22.032L15.1888 21.1537C15.3492 20.6575 15.224 20.1133 14.8629 19.737C14.0602 18.7833 14.1411 17.3689 15.0474 16.5129C15.9537 15.657 17.3705 15.657 18.2768 16.5129C19.1831 17.3689 19.264 18.7833 18.4613 19.737C18.1002 20.1133 17.975 20.6575 18.1354 21.1537ZM12.1146 9.60785H12.6246V9.62202H21.3229V5.66952C21.2693 4.462 20.2499 3.52487 19.0421 3.57285H14.3954C13.1877 3.52487 12.1682 4.462 12.1146 5.66952V9.60785Z" fill="black"/>
</svg>
