<svg width="88" height="88" viewBox="0 0 88 88" fill="none" xmlns="http://www.w3.org/2000/svg">
<circle cx="44" cy="44" r="44" fill="black"/>
<path fill-rule="evenodd" clip-rule="evenodd" d="M32.0926 37.5042C34.2319 32.3672 39.2444 29.0152 44.809 29.0004C50.8063 28.9688 56.139 32.8103 58.0084 38.5088C59.8779 44.2074 57.8571 50.4612 53.0066 53.9884C48.1561 57.5156 41.5839 57.5103 36.739 53.9754L32.419 58.2954C31.9798 58.7341 31.2682 58.7341 30.829 58.2954C30.3903 57.8562 30.3903 57.1446 30.829 56.7054L35.014 52.5204C31.1049 48.5601 29.9533 42.6411 32.0926 37.5042ZM34.0983 47.2538C35.8945 51.5823 40.1226 54.4015 44.809 54.3954V54.3354C51.1694 54.3273 56.3328 49.1907 56.374 42.8304C56.38 38.144 53.5609 33.9159 49.2324 32.1197C44.9039 30.3235 39.9195 31.3133 36.6057 34.6271C33.2919 37.9409 32.3021 42.9253 34.0983 47.2538Z" fill="white"/>
</svg>
