<svg width="34" height="34" viewBox="0 0 34 34" fill="none" xmlns="http://www.w3.org/2000/svg">
<path d="M23.5733 31.1667H10.4266C8.99459 31.1146 7.66065 30.4258 6.78909 29.2884C5.91752 28.151 5.5994 26.6838 5.9216 25.2875L6.2616 23.6725C6.65265 21.4863 8.53198 19.8797 10.7524 19.8333H23.2474C25.4679 19.8797 27.3472 21.4863 27.7383 23.6725L28.0783 25.2875C28.4005 26.6838 28.0823 28.151 27.2108 29.2884C26.3392 30.4258 25.0053 31.1146 23.5733 31.1667Z" fill="black"/>
<path d="M17.7084 17H16.2917C13.1621 17 10.625 14.4629 10.625 11.3333V7.59333C10.6212 6.32975 11.1215 5.11683 12.015 4.22334C12.9085 3.32984 14.1214 2.82956 15.385 2.83333H18.615C19.8786 2.82956 21.0915 3.32984 21.985 4.22334C22.8785 5.11683 23.3788 6.32975 23.375 7.59333V11.3333C23.375 12.8362 22.778 14.2776 21.7153 15.3403C20.6526 16.403 19.2112 17 17.7084 17Z" fill="black"/>
</svg>
