<svg width="88" height="88" viewBox="0 0 88 88" fill="none" xmlns="http://www.w3.org/2000/svg">
<circle cx="44" cy="44" r="44" fill="black"/>
<path d="M55.1132 43.6255C54.688 43.6255 54.2951 43.8524 54.0825 44.2206C53.8699 44.5888 53.8699 45.0424 54.0825 45.4107C54.2951 45.7789 54.688 46.0057 55.1132 46.0057H61.4157H61.6001V43.592H61.4157L55.1132 43.6255Z" fill="white"/>
<path d="M61.4156 49.1905H55.1132C52.697 49.1905 50.7383 47.2318 50.7383 44.8156C50.7383 42.3995 52.697 40.4408 55.1132 40.4408H61.4156H61.6V37.6248C61.6 33.9218 58.5982 30.92 54.8953 30.92H33.1048C29.4018 30.92 26.4 33.9218 26.4 37.6248V52.0065C26.4 55.7094 29.4018 58.7112 33.1048 58.7112H54.8953C58.5982 58.7112 61.6 55.7094 61.6 52.0065V49.157L61.4156 49.1905Z" fill="white"/>
</svg>
